# xmcd
#
# Track frame offsets:
#	150
#	15165
#	59754
#	86816
#	99979
#
# Disc length: 1690 seconds
#
# Revision: 1
# Processed by: cddbd v1.5.2PL0 Copyright (c) Steve Scherf et al.
# Submitted via: audiograbber 1.83.01
#
DISCID=34069805
DTITLE=Grateful Dead - 79-08-04 Oakland Auditorium Arena, Oakland CA
DYEAR=1900
DGENRE=
TTITLE0=Space
TTITLE1=Stella Blue
TTITLE2=Sugar Magnolia
TTITLE3=Sunshine Daydream
TTITLE4=US Blues
EXTD=
EXTT0=
EXTT1=
EXTT2=
EXTT3=
EXTT4=
PLAYORDER=
